<?xml version="1.0" standalone="no"?><!DOCTYPE svg PUBLIC "-//W3C//DTD SVG 1.1//EN" "http://www.w3.org/Graphics/SVG/1.1/DTD/svg11.dtd"><svg t="1589901303089" class="icon" viewBox="0 0 1024 1024" version="1.1" xmlns="http://www.w3.org/2000/svg" p-id="13473" xmlns:xlink="http://www.w3.org/1999/xlink" width="64" height="64"><defs><style type="text/css"></style></defs><path d="M512 512m-512 0a512 512 0 1 0 1024 0 512 512 0 1 0-1024 0Z" fill="#032969" p-id="13474"></path><path d="M578.104 177.58c28.027-37.11 57.066-52.47 87.118-46.083 45.078 9.582 85.372 51.983 76.864 99.706 45.463 9.36 68.108 22.006 78.044 52.377 43.57-18.438 92.269 4.181 108.59 30.963 16.32 26.781 53.957 69.497-13.571 129.838 57.433 62.243 44.541 104.128 41.015 120.716-3.526 16.588-22.306 66.544-51.952 68.38 20.307 23.326 23.758 64.49 15.648 80.131-8.11 15.642-34.797 65.514-96.006 59.984 8.654 46.24-43.943 86.58-63.194 101.964-19.251 15.383-85.948 12.38-110.856 2.539-2.204 20.429-27.652 75.812-100.05 63.41-48.265-8.267-74.745-26.154-79.44-53.66-34.408 37.38-71.8 46.296-112.177 26.75-60.566-29.322-77.308-58.617-79.706-84.388-28.36 21.555-84.118 49.796-134.016-40.272-25.392-44.345-23.113-78.745 6.839-103.199-20.185-9-35.556-26.815-46.116-53.443-7.402-18.447-4.573-37.334 8.486-56.66-39.746-22.166-55.408-53.063-46.984-92.693 8.423-39.63 25.074-58.412 49.953-56.347-26.823-70.177-20.958-117.649 17.596-142.416 38.553-24.768 75.747-31.719 111.584-20.854-5.33-47.63 13.084-77.991 55.245-91.084 42.16-13.092 73.674-11.608 94.542 4.453 7.986-46.603 35.305-68.034 81.958-64.294 46.652 3.74 80.18 25.134 100.586 64.182z" fill="#E4520D" p-id="13475"></path><path d="M239.224 411.772c-39.232-17.48-51.177-44.003-52.065-75.167-0.94-32.988 56.446-63.507 85.12-67.73 17.35-2.554 35.393 18.36 54.13 62.744 72.188-46.148 158.338-65.513 226.345-58.78 43.84 4.055 98.033 23.7 148.597 56.354 36.013-40.44 62.22-56.23 78.62-47.372 25.501 13.775 68.989 62.081 56.822 92.758-7.51 18.94-18.781 34.402-37.649 43.682 43.264 56.526 69.071 127.355 57.15 208.748-29.984 204.73-249.821 212.147-352.49 210.173-102.67-1.974-345.096-88.357-319.745-287.893 6.825-53.718 26.869-99.522 55.165-137.517z" fill="#F5AE19" p-id="13476"></path><path d="M249.424 398.489c-28.793-23.293-40.75-39.236-35.873-47.828 7.316-12.888 16.184-23.677 25.795-21.983 9.611 1.695 40.393 41.314 39.49 46.435-0.602 3.413-10.406 11.205-29.412 23.376z m534.202 2.673c-17.38-14.284-26.16-23.145-26.339-26.583-0.268-5.157 35.17-40.525 44.924-41.041 9.753-0.516 17.235 11.188 22.917 24.775 3.79 9.058-10.045 23.341-41.502 42.85z" fill="#CA7B10" p-id="13477"></path><path d="M424.51 588.14c2.281-51.28 18.095-155.604 47.44-312.971 14.382-2.39 25.738-3.781 34.067-4.171 8.33-0.39 22.47 0.25 42.422 1.923 33.462 146.36 51.55 248.277 54.261 305.748 35.006 16.966 58.4 45.891 60.796 83.904 4.112 65.261-111.468 76.829-146.036 28.78-35.141 38.898-143.59 52.016-143.563-13.23 0.015-37.292 19.18-69.069 50.612-89.983z" fill="#F6DD94" p-id="13478"></path><path d="M507.808 715.58l-0.119-0.001c-35.943-0.127-92.592-45.682-88.602-68.313 3.99-22.631 43.467-37.217 90.218-35.528 46.752 1.689 106.814 0.754 100.224 38.125-5.884 33.374-53.81 59.648-89.594 64.799-1.03 9.276-1.133 33.924-0.247 73.181 10.771-0.579 22.861-5.858 36.303-16.088a6 6 0 1 1 7.267 9.55c-19.27 14.664-37.147 20.794-53.57 17.898-16.062-2.832-28.69-10.536-37.549-22.99a6 6 0 1 1 9.779-6.956c6.235 8.765 14.735 14.488 25.737 17.253-0.8-36.1-0.765-59.553 0.153-70.93z m-244.4-159.208a6 6 0 0 1 11.868-1.78c7.285 48.581 24.156 72.221 50.176 73.202 17.665 0.665 31.87-7.862 42.472-23.098 8.049-11.567 13.258-26.704 13.265-34.659a6 6 0 1 1 12 0.01c-0.01 10.524-6.027 28.011-15.415 41.503-12.768 18.35-30.626 29.07-52.774 28.235-33.168-1.25-53.554-29.815-61.592-83.413zM644.133 570.9a6 6 0 0 1 11.875-1.725c5.528 38.054 21.197 56.523 47.44 57.517 18.583 0.703 34.28-7.086 45.8-21.234 10.16-12.48 16.112-29.077 16.116-43.448a6 6 0 0 1 12 0.003c-0.004 17.141-6.914 36.41-18.811 51.022-13.806 16.957-33.04 26.5-55.558 25.648-32.815-1.242-52.58-24.54-58.862-67.783z" fill="#5A3714" p-id="13479"></path></svg>